<!-- dmx3377 2026 --><svg version="1.2" xmlns="http://www.w3.org/2000/svg" viewBox="0 0 256 256" width="128" height="128"><style>.a{fill:#0093ff}</style><path class="a" d="m141.5 92.4q27.6 0 49 9.2 21.4 8.9 33.4 25.2 12 16.1 12 37 0 33.4-23.2 53.3-23.2 19.6-65.6 22.4l-7.6-29.8q33.1-2.6 48.2-13.8 15-11.2 15-33.1 0-14.6-8.6-24.5-8.5-9.9-24.8-14.3-8.1 32.4-22.7 57.1-14.5 24.8-34.4 38.5-19.6 13.8-43.1 13.8-21.9 0-35.4-13-13.3-13.3-13.3-37 0-25.5 16.1-46.4 16-21.1 43.8-32.9l0.8-28.3q-34.4 0-51-0.2l0.5-29.6q22.2 0.8 52 0.8 1-20.2 1.8-30.9l30.9 1.5-2.3 29.1q61.7-1 102-3.8l1.2 29.3q-54.3 3.1-105 3.6-0.5 13.2-0.5 19.6 15.3-2.8 30.8-2.8zm-26.5 84.9q16.3-21.2 25.8-56.6h-0.5q-15.9 0-30.1 3.8 0.2 26 4.8 52.8zm-63.2 3.6q0 10.7 4.8 16 4.9 5.4 14 5.4 9.7 0 18.9-3.8-7.1-31.9-8.7-61.7-13.7 8.6-21.4 20.1-7.6 11.5-7.6 24z"/></svg>